<svg width="82" height="76" viewBox="0 0 82 76" fill="none" xmlns="http://www.w3.org/2000/svg">
<mask id="mask0_7828_40637" style="mask-type:alpha" maskUnits="userSpaceOnUse" x="0" y="0" width="82" height="76">
<rect width="82" height="76" fill="#D9D9D9"/>
</mask>
<g mask="url(#mask0_7828_40637)">
<path fill-rule="evenodd" clip-rule="evenodd" d="M23.9 20.8C23 16.2 26.7 12 31.7 12C36 12 39.6 15.4 39.6 19.5V28.7C40.7 28.7 41.9 28.5 43 28.5C44.1 28.5 45.1 28.5 46.2 28.7V19.5C46.2 15.4 49.8 12.1 54.2 12.1C59.1 12.1 62.9 16.3 62.1 21L60.2 31.7C67.6 34.7 73.2 40 73.2 46.5V50.6C73.2 56.1 69.3 60.6 63.9 63.6C58.4 66.7 51.2 68 43 68C34.8 68 27.6 66.7 22.1 63.5C16.8 60.5 13 55.9 13 50.4V46.3C13 39.8 18.6 34.5 25.9 31.6L23.9 20.8ZM57.2 33L59.7 20.3C60.3 17.1 57.8 14.2 54.2 14.1C51.2 14.1 48.7 16.4 48.7 19.2V30.8C48.1 30.7 47.1 30.7 46.4 30.7C45.3 30.7 44.3 30.5 43.2 30.5C42.1 30.5 40.9 30.5 39.8 30.7C39 30.7 38.1 30.9 37.3 30.9V19.4C37.3 16.6 34.8 14.3 31.8 14.3C28.4 14.3 25.8 17.3 26.5 20.4L29 33.1C21.1 35.9 15.7 40.8 15.7 46.4V50.5C15.7 59.1 28 66.3 43.2 66.3C58.4 66.4 70.8 59.3 70.8 50.7V46.7C70.8 40.9 65.5 35.9 57.2 33Z" fill="#633001"/>
<path d="M70.8001 50.4999C70.8001 59.0999 58.4001 66.1999 43.3001 66.1999C28.2001 66.1999 15.7001 59.0999 15.7001 50.4999V46.3999H70.9001V50.4999H70.8001Z" fill="#FEDC90"/>
<path fill-rule="evenodd" clip-rule="evenodd" d="M26.4 20.4998C25.6 17.2998 28.3 14.3998 31.7 14.3998C34.7 14.3998 37.2 16.6998 37.2 19.4998V31.0998C39.1 30.8998 41 30.6998 43.1 30.6998C45 30.6998 46.9 30.8998 48.8 31.0998V19.3998C48.8 16.5998 51.3 14.2998 54.3 14.2998C57.7001 14.2998 60.3 17.2998 59.8 20.3998L57.3 33.0998C65.2001 35.8998 70.8 40.7998 70.8 46.4998C70.8 55.0998 58.4001 62.1998 43.3001 62.1998C28.2001 62.1998 15.8 55.1998 15.8 46.5998C15.8 40.8998 21.1 35.9998 29.1 33.1998L26.4 20.4998Z" fill="#D1884F"/>
<path d="M35.4 45.2996C35.4 47.5996 34.1 49.4996 32.4 49.4996C30.7 49.4996 29.4 47.4996 29.4 45.2996C29.4 42.9996 30.7 41.0996 32.4 41.0996C34.1 41.1996 35.4 43.0996 35.4 45.2996Z" fill="#633001"/>
<path d="M56.5 45.2996C56.5 47.5996 55.2 49.4996 53.5 49.4996C51.8 49.4996 50.5 47.4996 50.5 45.2996C50.5 42.9996 51.8 41.0996 53.5 41.0996C55.2 41.1996 56.5 43.0996 56.5 45.2996Z" fill="#633001"/>
</g>
</svg>
