<svg width="82" height="76" viewBox="0 0 82 76" fill="none" xmlns="http://www.w3.org/2000/svg">
<mask id="mask0_7828_40638" style="mask-type:alpha" maskUnits="userSpaceOnUse" x="0" y="0" width="82" height="76">
<rect width="82" height="76" fill="#D9D9D9"/>
</mask>
<g mask="url(#mask0_7828_40638)">
<path d="M22.7772 13.3022L70.886 46.1411L58.9789 63.7444L10.8701 30.631L22.7772 13.3022Z" fill="url(#paint0_linear_7828_40638)"/>
<path d="M70.886 46.1411C66.734 52.0775 52.768 49.7784 39.5913 40.4449C26.1401 31.3859 18.8997 19.2386 22.7773 13.2679C26.9293 7.33154 40.8953 9.6306 54.072 18.9641C67.5232 27.7829 74.7636 40.2047 70.886 46.1411Z" fill="url(#paint1_linear_7828_40638)"/>
<path d="M58.9789 63.5044C54.8268 69.4408 40.8609 67.1417 27.6842 57.8082C14.5074 48.4747 6.99258 36.6019 11.1446 30.391C15.2967 24.4546 29.2626 26.7537 42.4393 36.0872C55.6161 45.4207 62.8564 57.5337 58.9789 63.5044Z" fill="url(#paint2_linear_7828_40638)"/>
<path d="M70.886 46.1411L58.9789 63.7444C54.8269 69.6808 40.8609 67.1072 27.6842 58.0482C25.1106 56.2295 22.7772 54.4109 20.4438 52.352C22.2625 52.0775 24.5959 51.048 26.895 48.4745C31.047 44.0822 33.1059 43.0528 34.9245 43.293C36.7432 43.293 38.802 45.1117 42.1649 49.5039C45.5277 53.8961 50.1944 55.2001 53.0425 52.8667C53.317 52.5922 53.5572 52.5922 53.8317 52.352C56.1651 50.5333 56.92 49.7784 61.3466 41.4743C62.376 39.4155 66.0134 36.0527 70.9203 37.5968C72.1556 40.9939 72.1556 43.842 70.886 46.1411Z" fill="#0E0F23"/>
<path fill-rule="evenodd" clip-rule="evenodd" d="M69.0673 45.1118C65.43 50.2933 52.768 47.6854 40.6207 39.1754C28.1989 30.6311 20.9586 19.7878 24.5616 14.6063C28.1646 9.42483 40.8609 12.0327 53.0082 20.5427C65.1555 29.0527 72.4302 39.9646 69.0673 45.1118ZM57.675 37.3567C55.8563 39.9303 49.6454 38.6607 43.4345 34.5086C37.4981 30.3566 33.8608 24.9349 35.6794 22.3614C37.4981 19.7878 43.709 21.0574 49.9199 25.2095C55.8563 29.3272 59.4936 34.7832 57.675 37.3567Z" fill="white"/>
<path d="M21.7135 19.2384C21.7135 18.9639 21.439 18.7237 21.1988 18.9639C20.9243 19.2384 20.6841 19.2384 20.6841 19.4786C20.9586 20.2678 21.1988 20.7825 21.1988 21.2973C21.1988 21.5718 21.4733 21.812 21.7135 21.5718C21.988 21.5718 22.2282 21.2973 21.988 21.0571C21.988 20.5423 21.988 20.0276 21.7135 19.2384Z" fill="white"/>
<path d="M23.0175 23.3907C23.0175 23.1162 22.743 22.876 22.5028 23.1162C22.2626 23.3564 22.2283 23.3907 22.2283 23.6309C25.0764 30.0821 31.0128 37.0822 38.7678 42.2637C39.0423 42.5382 39.2825 42.2637 39.557 42.2637C39.8316 41.9891 39.557 41.7489 39.557 41.4744C31.5618 36.3273 25.8656 29.6016 23.0175 23.3907Z" fill="white"/>
<path d="M54.3121 48.749C54.0376 48.749 53.7974 48.749 53.7974 49.0235C53.7974 49.298 53.7974 49.5383 54.0719 49.5383C54.8611 49.8128 55.8905 50.053 56.6455 50.3275C56.92 50.3275 57.1602 50.3275 57.1602 50.053C57.1602 49.7785 57.1602 49.5383 56.8857 49.5383C56.1307 49.2637 55.1013 48.9892 54.3121 48.749Z" fill="white"/>
<path d="M58.9788 49.7783C58.7043 49.7783 58.4641 50.0528 58.4641 50.293C58.4641 50.5676 58.7386 50.8078 58.9788 50.8078C61.0377 51.0823 63.3711 51.3225 65.1897 51.0823C65.4642 51.0823 65.7044 50.8077 65.7044 50.5675C65.7044 50.3273 65.4299 50.0528 65.1897 50.0528C63.0966 50.293 61.0377 50.0528 58.9788 49.7783Z" fill="white"/>
</g>
<defs>
<linearGradient id="paint0_linear_7828_40638" x1="32.2" y1="8.63202" x2="41.7413" y2="41.3957" gradientUnits="userSpaceOnUse">
<stop stop-color="#03B8FF"/>
<stop offset="1" stop-color="#FA52A0"/>
</linearGradient>
<linearGradient id="paint1_linear_7828_40638" x1="40.0174" y1="6.35519" x2="49.559" y2="39.119" gradientUnits="userSpaceOnUse">
<stop stop-color="#03B8FF"/>
<stop offset="1" stop-color="#FA52A0"/>
</linearGradient>
<linearGradient id="paint2_linear_7828_40638" x1="24.4749" y1="10.8816" x2="34.0165" y2="43.6456" gradientUnits="userSpaceOnUse">
<stop stop-color="#03B8FF"/>
<stop offset="1" stop-color="#FA52A0"/>
</linearGradient>
</defs>
</svg>
