<svg width="82" height="76" viewBox="0 0 82 76" fill="none" xmlns="http://www.w3.org/2000/svg">
<mask id="mask0_7828_40639" style="mask-type:alpha" maskUnits="userSpaceOnUse" x="0" y="0" width="82" height="76">
<rect width="82" height="76" fill="#D9D9D9"/>
</mask>
<g mask="url(#mask0_7828_40639)">
<path d="M34.9559 20.6696C34.2574 20.5698 34.2241 20.5365 34.5568 20.5032C35.1888 20.4035 36.6524 20.5365 37.6836 20.7694C40.0786 21.3349 42.2408 22.7985 44.536 25.3598L45.1348 26.0584L45.9997 25.9253C49.692 25.3266 53.4841 25.7923 56.6442 27.2559C57.5091 27.6551 58.8729 28.4534 59.0393 28.653C59.1058 28.7195 59.2056 29.152 59.2721 29.5844C59.5049 31.1478 59.4052 32.3121 58.9062 33.2102C58.6401 33.7092 58.6401 33.8422 58.8064 34.2746C58.9395 34.6073 59.3386 34.8401 59.7045 34.8401C60.5029 34.8401 61.3345 33.5761 61.7337 31.8131L61.9 31.1145L62.1994 31.4472C63.8958 33.3432 65.2264 35.9711 65.426 37.8339L65.4925 38.3329L65.1931 37.9004C64.6942 37.1354 64.2285 36.6364 63.5965 36.204C62.4655 35.4389 61.268 35.206 58.1079 35.0397C55.2471 34.8734 53.6172 34.6406 52.0205 34.1083C49.2928 33.2102 47.8957 32.0459 44.6691 27.7549C43.2387 25.8588 42.3406 24.8276 41.4425 23.9627C39.4799 22.0667 37.5173 21.0687 34.9559 20.6696Z" fill="#FF007A"/>
<path d="M59.7377 24.894C59.8043 23.6299 59.9706 22.7983 60.3365 22.0333C60.4695 21.7339 60.6026 21.4678 60.6359 21.4678C60.6691 21.4678 60.6026 21.7006 60.5028 21.9667C60.2367 22.6986 60.2034 23.7297 60.3697 24.894C60.6026 26.3909 60.7024 26.5905 62.2991 28.2204C63.0309 28.9855 63.8958 29.9502 64.2284 30.3493L64.7939 31.0811L64.2284 30.5489C63.5298 29.8836 61.9332 28.6196 61.5673 28.4533C61.3344 28.3202 61.3011 28.3202 61.1348 28.4865C61.0018 28.6196 60.9685 28.8192 60.9685 29.7838C60.9352 31.2807 60.7357 32.2121 60.2367 33.1768C59.9706 33.6757 59.9373 33.576 60.1702 33.0105C60.3365 32.578 60.3697 32.3784 60.3697 30.9481C60.3697 28.0541 60.0371 27.3555 58.008 26.1913C57.509 25.8919 56.6442 25.4595 56.1452 25.2266C55.613 24.9938 55.2138 24.7942 55.2471 24.7942C55.3136 24.7277 57.2762 25.2932 58.0412 25.6258C59.2055 26.0915 59.4051 26.1248 59.5381 26.0915C59.6379 25.9917 59.7045 25.7256 59.7377 24.894Z" fill="#FF007A"/>
<path d="M36.3197 29.8504C34.9226 27.921 34.0245 24.9273 34.2241 22.6985L34.2906 22L34.6233 22.0665C35.222 22.1663 36.2532 22.5655 36.7522 22.8649C38.0827 23.6632 38.6815 24.7609 39.247 27.4886C39.4133 28.2869 39.6462 29.2183 39.746 29.5177C39.9123 30.0167 40.5443 31.1809 41.0765 31.9127C41.4424 32.445 41.2096 32.7111 40.378 32.6446C39.1139 32.5115 37.4175 31.3473 36.3197 29.8504Z" fill="#FF007A"/>
<path d="M58.0413 44.3204C51.455 41.6593 49.1265 39.364 49.1265 35.4721C49.1265 34.9066 49.1597 34.4409 49.1597 34.4409C49.193 34.4409 49.4258 34.6405 49.7252 34.8734C51.0558 35.9378 52.5527 36.4035 56.7107 37.0023C59.139 37.3682 60.5361 37.6343 61.8001 38.0667C65.8251 39.3973 68.3199 42.125 68.9187 45.8173C69.085 46.8817 68.9852 48.9109 68.7191 49.9753C68.4863 50.8069 67.821 52.3371 67.6546 52.3703C67.6214 52.3703 67.5549 52.204 67.5549 51.9379C67.4883 50.5408 66.7898 49.2102 65.6255 48.179C64.2284 46.9815 62.4322 46.0834 58.0413 44.3204Z" fill="#FF007A"/>
<path d="M53.3843 45.418C53.3177 44.9191 53.1514 44.2871 53.0516 44.0209L52.8853 43.522L53.1847 43.8879C53.6171 44.3868 53.9498 44.9856 54.2491 45.8172C54.482 46.4492 54.482 46.6488 54.482 47.68C54.482 48.6779 54.4487 48.9108 54.2491 49.4763C53.9165 50.3744 53.5173 51.0064 52.852 51.705C51.6545 52.9358 50.0911 53.601 47.8624 53.9004C47.4632 53.9337 46.3322 54.0335 45.3343 54.1C42.8395 54.2331 41.1763 54.4992 39.6794 55.0314C39.4798 55.0979 39.2802 55.1645 39.247 55.1312C39.1804 55.0647 40.2116 54.4659 41.0432 54.0667C42.2075 53.5012 43.405 53.2019 46.0329 52.7362C47.3302 52.5366 48.6607 52.2705 48.9934 52.1374C52.2865 51.1062 53.9165 48.5449 53.3843 45.418Z" fill="#FF007A"/>
<path d="M56.4112 50.7737C55.5464 48.8776 55.3468 47.0814 55.8125 45.3849C55.879 45.2186 55.9455 45.0522 56.0121 45.0522C56.0786 45.0522 56.2782 45.152 56.4778 45.2851C56.8769 45.5512 57.7085 46.0169 59.8375 47.1812C62.5319 48.6448 64.062 49.7758 65.1265 51.0731C66.0579 52.2041 66.6234 53.5014 66.8895 55.098C67.0558 55.9962 66.956 58.1584 66.7232 59.0565C65.9913 61.884 64.3281 64.1459 61.8998 65.4432C61.5339 65.6428 61.2346 65.7759 61.2013 65.7759C61.168 65.7759 61.3011 65.4432 61.5007 65.0441C62.299 63.3476 62.3988 61.7176 61.8 59.8881C61.4341 58.7571 60.6691 57.3933 59.1389 55.098C57.3094 52.4369 56.8769 51.7384 56.4112 50.7737Z" fill="#FF007A"/>
<path d="M31.6295 60.9525C34.091 58.8901 37.1181 57.4265 39.9123 56.9608C41.1098 56.7612 43.1056 56.8277 44.2033 57.1271C45.9663 57.5928 47.563 58.5907 48.3946 59.8215C49.193 61.019 49.5589 62.0502 49.9248 64.3454C50.0578 65.2436 50.2242 66.175 50.2574 66.3745C50.5236 67.5721 51.0558 68.5035 51.7211 69.0024C52.7523 69.7675 54.5485 69.8008 56.3115 69.1355C56.6109 69.0357 56.877 68.9359 56.877 68.9692C56.9435 69.0357 56.0454 69.6344 55.4467 69.9338C54.615 70.3663 53.9498 70.4993 53.0516 70.4993C51.4549 70.4993 50.0911 69.6677 48.9934 68.0045C48.7605 67.6719 48.2948 66.7072 47.8957 65.8091C46.7314 63.1146 46.1327 62.3163 44.7688 61.4182C43.5713 60.6531 42.0412 60.4868 40.8769 61.0523C39.3468 61.7841 38.9476 63.7467 40.012 64.9442C40.4445 65.4431 41.2428 65.8423 41.9081 65.9421C43.1389 66.1084 44.2033 65.1438 44.2033 63.913C44.2033 63.1146 43.904 62.649 43.1056 62.283C42.0412 61.8173 40.8769 62.3496 40.9102 63.3808C40.9102 63.8132 41.1098 64.0793 41.5422 64.2789C41.8083 64.412 41.8083 64.412 41.6087 64.3787C40.6441 64.1791 40.4112 62.9816 41.1763 62.2165C42.1077 61.2851 44.0703 61.6843 44.7356 62.9816C45.0017 63.5138 45.0349 64.5783 44.8021 65.2436C44.2366 66.7072 42.6399 67.4723 41.01 67.0398C39.9123 66.7404 39.4466 66.4411 38.116 65.0772C35.7875 62.6822 34.8894 62.2165 31.5629 61.7175L30.9309 61.6178L31.6295 60.9525Z" fill="#FF007A"/>
<path fill-rule="evenodd" clip-rule="evenodd" d="M14.1325 7.43036C21.883 16.8441 33.8249 31.4804 34.4237 32.2788C34.9226 32.944 34.723 33.5761 33.8914 34.0418C33.4257 34.3079 32.4611 34.574 31.9954 34.574C31.4631 34.574 30.8311 34.3079 30.3987 33.8754C30.0993 33.5761 28.802 31.68 25.8747 27.1228C23.646 23.63 21.75 20.7361 21.7167 20.7028C21.5837 20.6363 21.5837 20.6363 25.6419 27.8879C28.2032 32.4451 29.0348 34.075 29.0348 34.2746C29.0348 34.707 28.9018 34.9399 28.3696 35.5386C27.4714 36.5366 27.0723 37.6676 26.7729 40.0293C26.4402 42.6572 25.5421 44.52 22.9808 47.6801C21.4839 49.5429 21.251 49.8755 20.8851 50.6406C20.4194 51.572 20.2863 52.1042 20.2198 53.3018C20.1533 54.5658 20.2863 55.3641 20.6523 56.5616C20.9849 57.6261 21.3508 58.3247 22.2489 59.6885C23.014 60.886 23.4797 61.7841 23.4797 62.1168C23.4797 62.3829 23.5462 62.3829 24.7438 62.1168C27.6045 61.4515 29.9662 60.3205 31.2635 58.9234C32.0619 58.0585 32.2615 57.5928 32.2615 56.3953C32.2615 55.6303 32.2282 55.4639 32.0286 54.9982C31.696 54.2664 31.064 53.6677 29.7001 52.7363C27.9039 51.5055 27.1388 50.5076 26.9392 49.177C26.7729 48.046 26.9725 47.2809 27.9704 45.1853C29.0016 43.0231 29.2677 42.125 29.434 39.9295C29.5338 38.5324 29.7001 37.9669 30.0993 37.5345C30.5317 37.0688 30.8976 36.9025 31.9288 36.7694C33.6253 36.5366 34.723 36.1041 35.5879 35.2725C36.353 34.574 36.6856 33.8754 36.7189 32.8442L36.7521 32.0792L36.3197 31.6135C34.7563 29.8172 13.1013 6 13.0015 6C12.9682 6 13.5004 6.63202 14.1325 7.43036ZM24.3446 54.7321C24.7105 54.1001 24.5109 53.3018 23.9122 52.9026C23.3467 52.5367 22.4818 52.703 22.4818 53.202C22.4818 53.335 22.5483 53.4681 22.7479 53.5346C23.0473 53.7009 23.0805 53.8672 22.8477 54.2332C22.6148 54.5991 22.6148 54.9317 22.9142 55.1646C23.3799 55.5305 24.0119 55.3309 24.3446 54.7321Z" fill="#FF007A"/>
<path fill-rule="evenodd" clip-rule="evenodd" d="M37.8166 37.2351C37.0183 37.468 36.2532 38.3328 36.0203 39.1977C35.8873 39.7299 35.9538 40.6946 36.1867 40.994C36.5526 41.4597 36.8852 41.5927 37.8166 41.5927C39.6461 41.5927 41.2096 40.7944 41.3759 39.8297C41.5422 39.0314 40.8436 37.9337 39.879 37.4347C39.38 37.1686 38.3488 37.0688 37.8166 37.2351ZM39.9455 38.8983C40.2116 38.4992 40.1118 38.0667 39.6129 37.7673C38.7147 37.2019 37.3509 37.6676 37.3509 38.5324C37.3509 38.9649 38.0494 39.4306 38.7147 39.4306C39.1472 39.4306 39.7459 39.1644 39.9455 38.8983Z" fill="#FF007A"/>
</g>
</svg>
