<svg width="82" height="76" viewBox="0 0 82 76" fill="none" xmlns="http://www.w3.org/2000/svg">
<mask id="mask0_7828_40641" style="mask-type:alpha" maskUnits="userSpaceOnUse" x="0" y="0" width="82" height="76">
<rect width="82" height="76" fill="#D9D9D9"/>
</mask>
<g mask="url(#mask0_7828_40641)">
<path d="M25.6038 40.5897L27.1024 29.2333L14.0142 20.1748L25.9701 24.2378L28.8009 19.9084L39.1249 13.5142L61.871 26.0362L63.0366 45.1523L52.9124 59.2395L44.9196 60.4718L49.0493 52.8786V45.5852L46.052 39.8903L42.9881 37.8588L38.2923 42.7211V47.8498L34.6289 51.2801L29.9665 51.8462L27.9017 53.0118L24.5047 51.9461L23.106 46.8507L25.6371 43.2873V40.5897H25.6038Z" fill="white"/>
<path d="M46.5182 20.0746C44.0204 19.5417 41.2896 19.7082 41.2896 19.7082C41.2896 19.7082 40.3904 23.8378 34.8287 24.9368C34.862 24.9368 42.1888 27.4013 46.5182 20.0746Z" fill="#94A6C3"/>
<path d="M48.7828 57.6407C51.7801 55.2762 54.0447 52.0458 55.1104 48.3491C55.1437 48.2159 55.5767 47.9828 55.8764 47.783C56.3426 47.5165 56.8089 47.2501 56.9088 46.8838C57.1086 45.8181 57.1752 44.6858 57.1752 43.5535C57.1752 43.1205 56.7423 42.7209 56.3426 42.2879C56.0096 42.0215 55.6766 41.6885 55.6766 41.4554C55.2103 37.1592 53.2454 33.1628 50.0816 30.2655L49.7486 30.5985C52.8125 33.4626 54.7774 37.3924 55.2103 41.522C55.2436 41.8883 55.6433 42.2879 56.0096 42.6543C56.3426 42.9207 56.709 43.3536 56.709 43.5535C56.709 44.6192 56.6091 45.7182 56.4425 46.7839C56.4092 46.9837 55.9763 47.1502 55.6433 47.35C55.177 47.5832 54.7441 47.8163 54.6442 48.1826C53.5119 52.179 50.9142 55.6758 47.484 57.9405C48.0834 56.6083 50.015 52.3455 51.0474 50.1808L50.8476 43.2204L44.853 37.3924L41.4561 37.8586L37.7261 43.8865C37.7261 43.8865 39.4579 46.0845 37.0267 48.6822C34.6289 51.2132 32.7306 51.7794 32.7306 51.7794L30.9989 50.8469C31.5317 50.1808 32.5641 49.215 33.3634 48.5489C34.7288 47.4166 36.0943 47.3167 36.0943 46.1178C36.1609 43.5535 33.43 44.2528 33.43 44.2528L32.4309 45.1853L31.998 48.7155L29.9332 51.3131L29.7 51.2798L26.3031 50.5138C26.3031 50.5138 28.3679 49.4481 28.7009 48.2159C29.034 47.0503 28.0349 43.1205 28.0016 42.8874C28.0349 42.9207 29.0007 43.72 29.4003 45.0521C30.1663 42.9873 31.1321 40.9891 31.4318 40.8226C31.6982 40.6228 35.5281 38.6246 35.5281 38.6246L34.2626 41.9549L35.1951 41.4221L37.4597 35.8604C37.4597 35.8604 39.6577 34.7947 41.3229 34.7947C44.2869 34.7614 48.6829 31.1313 46.6847 24.6372C47.2508 24.8703 57.042 29.7659 58.7405 39.3906C60.0393 46.7173 55.8431 53.6443 48.7828 57.6407Z" fill="#94A6C3"/>
<path d="M37.5596 21.1072C38.6253 19.8416 38.2257 17.9434 38.2257 17.9434L35.0619 22.6058C35.0286 22.6058 36.1942 22.6724 37.5596 21.1072Z" fill="#1B314F"/>
<path d="M26.9692 46.5842L27.3355 44.7192C27.3355 44.7192 25.7703 47.4501 25.637 47.8164C25.5038 48.2494 25.7369 48.9821 26.3364 48.9488C26.9359 48.9154 27.7018 48.0163 27.7018 47.3502C27.7018 46.4843 26.9692 46.5842 26.9692 46.5842Z" fill="#1B314F"/>
<path d="M54.9439 16.6446C54.9439 16.6446 57.3084 16.7445 59.7396 17.0109C54.2112 12.6815 49.0159 11.416 44.7531 11.416C38.925 11.416 34.9619 13.8138 34.7288 13.947L36.5605 11.0163C36.5605 11.0163 29.2005 10.3169 26.6361 18.0766C25.9701 16.4447 25.3706 14.0136 25.3706 14.0136C25.3706 14.0136 21.5407 17.3772 23.3391 22.9389C18.9431 21.3403 12.7154 19.109 12.4489 19.0757C12.1159 19.0424 12.016 19.1756 12.016 19.1756C12.016 19.1756 11.9161 19.3088 12.2158 19.5419C12.7487 19.9416 22.6397 27.2683 24.8044 28.667C24.3382 30.3655 24.3382 31.1648 24.8044 31.9641C25.4705 33.0298 25.5038 33.5959 25.4039 34.3952C25.304 35.1945 24.4714 42.1216 24.2716 42.9541C24.0718 43.7867 22.1069 46.8173 22.2068 47.7165C22.3067 48.6157 23.5389 52.4123 24.6046 52.8452C25.4039 53.1116 27.3688 53.7444 28.7009 53.7444C29.1672 53.7444 29.6001 53.6445 29.7666 53.478C30.5659 52.7786 30.799 52.6454 31.3652 52.6454C31.3985 52.6454 31.4651 52.6454 31.4984 52.6454C31.7315 52.6454 32.0312 52.6787 32.331 52.6787C33.097 52.6787 34.0627 52.5455 34.7621 51.8794C35.7945 50.847 37.5929 49.4483 38.159 48.7822C38.8584 47.883 39.2248 46.6508 39.0582 45.4519C38.925 44.3196 39.5245 43.3205 40.2238 42.3547C41.123 41.1891 42.7549 39.0577 42.7549 39.0577C46.0186 41.4888 48.0501 45.2188 48.0501 49.3484C48.0501 56.7084 41.6559 62.6364 33.7297 62.6364C32.4975 62.6364 31.3319 62.5031 30.1663 62.2034C33.7963 63.4689 36.8602 63.9019 39.358 63.9019C44.6865 63.9019 47.5173 61.9703 47.5173 61.9703C47.5173 61.9703 46.5182 63.2358 44.9196 64.7012C44.9529 64.7012 44.9529 64.7012 44.9529 64.7012C53.745 63.4689 58.0411 56.2088 58.0411 56.2088C58.0411 56.2088 57.7081 58.5734 57.2751 60.1719C68.9979 51.3799 66.9997 40.3565 66.9664 39.9901C67.0663 40.1234 68.2319 41.5554 68.8313 42.2881C70.7962 22.9056 54.9439 16.6446 54.9439 16.6446ZM36.8935 47.6166C36.6937 47.8497 35.8944 48.5491 35.3283 49.0819C34.7621 49.6148 34.1627 50.1143 33.6964 50.5806C33.4966 50.7804 33.1303 50.847 32.5641 50.847C32.3643 50.847 32.1978 50.847 32.0312 50.847C31.9313 50.847 31.8314 50.847 31.7648 50.847C31.6649 50.847 31.6316 50.847 31.565 50.847C31.4318 50.847 31.2986 50.847 31.1321 50.847C31.8314 49.9145 33.8962 47.7498 34.6289 47.2836C35.4615 46.7174 35.8944 46.1513 35.3949 45.1522C34.862 44.1531 33.5299 44.3862 33.5299 44.3862C33.5299 44.3862 34.3292 44.0531 35.0285 44.0531C34.1294 43.82 32.997 44.0531 32.4975 44.586C31.9313 45.1189 32.0312 46.9505 31.7981 48.1161C31.565 49.3484 30.7657 49.9478 29.5335 51.0801C28.8674 51.6796 28.4012 51.8794 28.0349 51.8794C27.2356 51.7462 26.3031 51.5131 25.637 51.28C25.1708 50.6805 24.4714 48.649 24.2716 47.7831C24.4048 47.3169 24.971 46.3178 25.2707 45.7516C25.8368 44.6859 26.1699 44.0531 26.2698 43.487C26.4696 42.6877 27.0691 37.7255 27.3022 35.6607C27.9016 36.46 28.7675 37.7921 28.5677 38.6247C29.9331 36.6931 28.934 34.7948 28.4678 34.0622C28.0349 33.2962 27.4687 31.7975 27.9349 30.199C28.4012 28.6004 30.0997 24.1711 30.0997 24.1711C30.0997 24.1711 30.6658 25.1702 31.4651 24.9704C32.2644 24.7706 38.7252 15.0793 38.7252 15.0793C38.7252 15.0793 40.457 18.8759 38.6253 21.6734C36.7603 24.4375 34.8953 24.9704 34.8953 24.9704C34.8953 24.9704 37.493 25.4366 39.8908 23.7049C40.8899 26.0028 41.8224 28.4006 41.8557 28.7336C41.7225 29.0667 39.8242 33.5959 39.6577 33.8623C39.5578 33.9623 38.8917 34.1288 38.4255 34.2287C37.6262 34.4618 37.16 34.595 36.9601 34.7615C36.6271 35.028 35.1284 39.1909 34.4291 41.2224C33.5965 41.4555 32.7306 41.9217 32.1312 42.8542C32.4642 42.6211 33.4966 42.4879 34.2626 42.388C34.9286 42.3547 36.9268 43.4204 37.4597 45.4519C37.4597 45.4852 37.4597 45.4852 37.4597 45.5518C37.5263 46.3511 37.2932 47.0504 36.8935 47.6166ZM32.4642 48.1827C32.8971 47.5833 32.8305 46.5509 32.8971 46.2179C32.9304 45.8848 33.0303 45.2854 33.43 45.1855C33.7963 45.0855 34.6955 45.2188 34.6955 45.8848C34.6955 46.4843 34.0294 46.6508 33.5632 47.0504C33.2302 47.3835 32.5641 48.0828 32.4642 48.1827ZM51.2805 39.1909C51.7468 36.793 51.8134 34.7282 51.6469 33.0298C53.4785 35.4609 54.6109 38.4582 54.9439 41.5221C54.9772 41.8884 55.3768 42.2881 55.7432 42.6544C56.0762 42.9208 56.4425 43.3205 56.4425 43.5536C56.4425 44.6193 56.3426 45.7183 56.1761 46.8173C56.1428 46.9505 55.7099 47.1837 55.3768 47.3835C54.9106 47.6166 54.4776 47.8497 54.3777 48.2161C53.3453 51.8461 51.114 55.0432 48.15 57.3078C52.5461 52.712 54.6442 45.1522 51.2805 39.1909ZM48.3165 57.7075C51.3804 55.3429 53.745 52.0459 54.7774 48.3493C54.8107 48.216 55.2436 47.9829 55.5433 47.7831C56.0096 47.55 56.4758 47.2503 56.5757 46.8839C56.7756 45.8182 56.8422 44.6859 56.8422 43.5536C56.8422 43.1207 56.4092 42.721 56.0096 42.2881C55.7765 42.0216 55.4101 41.6886 55.4101 41.4555C55.0438 38.0253 53.6784 34.7615 51.547 32.0973C50.6145 26.4357 46.8512 24.704 46.7513 24.6707C46.8512 24.8039 49.2823 28.334 47.5839 32.4969C45.8521 36.6931 41.3562 36.0271 40.9898 36.0604C40.6235 36.0604 39.1581 37.9253 37.3265 41.4222C37.0933 41.3223 36.0942 41.0892 34.9619 41.289C35.7945 38.9244 37.0933 35.5941 37.3265 35.2944C37.4264 35.1945 38.1257 35.028 38.592 34.8614C39.4912 34.6283 39.9241 34.4951 40.0573 34.2953C40.1572 34.1621 40.6235 33.0631 41.0897 31.9308C41.5227 31.9308 42.5884 31.8308 42.6883 31.7975C42.7882 31.6976 43.6874 29.3997 43.6874 29.1333C43.6874 28.9002 41.8557 24.3376 41.1563 22.5725C41.4894 22.2062 41.8224 21.74 42.1554 21.2071C51.8134 22.2395 59.3399 30.4321 59.3399 40.3565C59.2733 47.9496 54.8107 54.577 48.3165 57.7075Z" fill="#1B314F"/>
<path d="M35.7612 32.2639C36.6604 31.2315 36.1942 29.3 34.529 28.9669C34.9619 27.9678 35.5614 26.0029 35.5614 26.0029C35.5614 26.0029 30.7657 33.5295 30.3328 33.696C29.8999 33.8292 29.5002 32.1973 29.5002 32.1973C28.601 35.6276 30.9989 36.0938 31.2986 35.0281C32.6307 34.6618 34.862 33.263 35.7612 32.2639Z" fill="#1B314F"/>
<path d="M31.6649 34.0956L34.0961 29.8994C34.0961 29.8994 35.4948 30.5988 34.7954 31.7311C33.9295 33.0632 31.6649 34.0956 31.6649 34.0956Z" fill="#FFD923"/>
<path d="M61.9376 53.5111C61.2382 54.4435 60.439 55.4426 59.5065 56.3751C65.5677 44.6857 59.7729 33.9953 59.5398 33.5957C59.9727 34.0286 60.3724 34.4949 60.772 34.9278C65.4345 40.0898 66.0006 47.8495 61.9376 53.5111Z" fill="#D82122"/>
<path d="M67.5991 38.4913C65.4677 32.7965 62.4704 27.9342 55.8431 23.5714C49.4488 19.3419 42.5551 19.675 42.1887 19.7083C42.1554 19.7083 42.0888 19.7083 42.0888 19.7083C42.3219 19.6084 42.5551 19.5751 42.7882 19.5085C44.2535 19.0422 46.1185 18.6759 48.0168 18.4427C53.0123 17.7101 58.0411 19.4085 61.5046 23.0386C61.5379 23.0719 61.5379 23.0719 61.6045 23.1385C65.501 27.2681 67.4992 32.4634 67.5991 38.4913Z" fill="#D82122"/>
<path d="M54.3111 15.1795C47.2841 13.8473 42.7882 14.5134 39.5244 15.7456C39.4245 15.3793 39.0915 14.6133 38.8251 14.0139C37.8593 15.1795 36.7936 16.6115 36.1608 17.5107C34.3624 18.7429 33.6298 19.9085 33.6298 19.9085C34.6622 16.3784 37.6928 13.7474 41.3561 13.0814C42.3885 12.8815 43.5208 12.8149 44.753 12.8149C47.9835 12.8149 51.2139 13.6142 54.3111 15.1795Z" fill="#D82122"/>
<path d="M28.3679 24.2045C22.8729 24.0047 24.7046 17.6105 24.8045 17.2441C24.8045 17.2774 25.1708 22.2729 28.3679 24.2045Z" fill="#D82122"/>
<path d="M33.7963 12.6816C29.5668 15.2127 30.3994 21.3072 30.3994 21.3072C26.3697 15.1128 33.4633 12.8149 33.7963 12.6816Z" fill="#D82122"/>
<path d="M26.8359 25.9029C27.1024 26.136 27.4021 26.5689 27.0691 27.1684C26.8692 27.5014 26.6028 27.4348 26.1699 27.2683C25.6037 27.0019 22.2068 25.0037 19.1429 22.9722C22.6397 24.2044 26.1699 25.5032 26.736 25.8029C26.736 25.8029 26.7693 25.8696 26.8359 25.9029Z" fill="white"/>
</g>
</svg>
