<svg width="39" height="39" viewBox="0 0 39 39" fill="none" xmlns="http://www.w3.org/2000/svg">
<path d="M8.11553 18.3751C8.11553 17.4882 8.85958 16.7491 9.75243 16.7491H12.5054C13.4354 16.7491 14.1423 17.4882 14.1423 18.3751V28.6851C14.4399 28.6112 14.8491 28.5003 15.2955 28.3895C15.928 28.2416 16.3744 27.6873 16.3744 27.0591V14.2732C16.3744 13.3494 17.1185 12.6473 18.0113 12.6473H20.7643C21.6943 12.6473 22.4012 13.3864 22.4012 14.2732V26.1722C22.4012 26.1722 23.108 25.8766 23.7776 25.6179C24.2985 25.3962 24.6333 24.9158 24.6333 24.3615V10.2084C24.6333 9.28454 25.3773 8.58243 26.2702 8.58243H29.0231C29.9532 8.58243 30.66 9.32149 30.66 10.2084V21.8487C33.041 20.1119 35.4591 18.0794 37.3936 15.5666C37.9517 14.8275 38.1005 13.8668 37.8028 12.9799C34.2686 2.8916 23.1824 -2.42969 13.0634 1.08089C2.94444 4.59146 -2.44988 15.6036 1.08432 25.6549C1.49355 26.8004 1.97717 27.8721 2.57241 28.9438C3.05604 29.7567 3.9489 30.2371 4.91615 30.1632C5.43698 30.1263 6.06941 30.0523 6.85066 29.9784C7.5575 29.9045 8.07833 29.3133 8.07833 28.6112L8.11553 18.3751Z" fill="white"/>
<path d="M8.07837 34.9299C16.7837 41.2119 28.9488 39.2904 35.2731 30.6802C37.6913 27.3914 38.9934 23.4004 38.9934 19.2986C38.9934 18.8551 38.9562 18.4117 38.9562 17.9683C31.8134 28.5 18.681 33.4148 8.07837 34.9299Z" fill="#BFCFDA"/>
</svg>
