<svg width="39" height="39" viewBox="0 0 39 39" fill="none" xmlns="http://www.w3.org/2000/svg">
<path d="M11.3385 21.7748C12.4723 21.7748 13.5684 21.3993 14.3999 20.7236L7.37003 13.7407C6.68972 14.5667 6.31177 15.6178 6.31177 16.7816C6.31177 19.5598 8.57946 21.7748 11.3385 21.7748Z" fill="#EFEFEF"/>
<path d="M32.2391 16.7816C32.2391 15.6554 31.8612 14.5667 31.1809 13.7407L24.151 20.7236C24.9825 21.3993 26.0407 21.7748 27.2124 21.7748C30.0092 21.7748 32.2391 19.5598 32.2391 16.7816Z" fill="#EFEFEF"/>
<path d="M35.7918 9.23535L32.6926 12.3138C33.7131 13.5527 34.3556 15.0919 34.3556 16.8189C34.3556 20.6857 31.1808 23.8393 27.2879 23.8393C25.5494 23.8393 23.9998 23.2386 22.7526 22.1874L19.351 25.5662L15.9495 22.1874C14.7022 23.2011 13.1526 23.8393 11.4141 23.8393C7.52119 23.8393 4.34642 20.6857 4.34642 16.8189C4.34642 15.0919 4.95114 13.5527 6.0094 12.3138L4.30862 10.737L2.79683 9.23535C1.02046 12.1261 0 15.5049 0 19.1465C0 29.7334 8.61725 38.293 19.2754 38.293C29.8958 38.293 38.5508 29.7334 38.5508 19.1465C38.5508 15.5049 37.5304 12.0886 35.7918 9.23535Z" fill="#EFEFEF"/>
<path d="M33.2218 5.93167C29.7069 2.29008 24.7557 0 19.2755 0C13.7952 0 8.84405 2.29008 5.32912 5.93167C4.87558 6.41972 4.38425 6.94531 3.96851 7.50844L19.2377 22.6755L34.5068 7.4709C34.1667 6.94531 33.7131 6.41972 33.2218 5.93167ZM19.2755 2.47779C23.7731 2.47779 27.9683 4.20473 31.1053 7.35827L19.2755 19.109L7.44564 7.35827C10.5826 4.20473 14.7779 2.47779 19.2755 2.47779Z" fill="#EFEFEF"/>
</svg>
