<svg width="37" height="36" viewBox="0 0 37 36" fill="none" xmlns="http://www.w3.org/2000/svg">
<path d="M11.0394 15.1186L18.0816 8.12341L25.1239 15.1186L29.2129 11.0569L18.0816 0L6.95032 11.0569L11.0394 15.1186Z" fill="white"/>
<path d="M4.0961 13.9088L0 17.9775L4.0961 22.0462L8.1922 17.9775L4.0961 13.9088Z" fill="white"/>
<path d="M11.0394 20.835L18.0816 27.8301L25.1239 20.835L29.2129 24.8967L18.0816 35.9535L6.95032 24.9343V24.8967L11.0394 20.835Z" fill="white"/>
<path d="M32.1143 13.9147L28.0182 17.9834L32.1143 22.0521L36.2104 17.9834L32.1143 13.9147Z" fill="white"/>
<path d="M22.2465 17.9768L18.0818 13.8398L15.015 16.8861L14.6742 17.2622L13.9549 17.9768H13.917H13.9549L18.0818 22.1137L22.2465 17.9768Z" fill="white"/>
</svg>
